<svg width="24" height="24" viewBox="0 0 24 24" xmlns="http://www.w3.org/2000/svg">
  <defs>
    <linearGradient id="rocketBody" x1="8" y1="3" x2="16" y2="20" gradientUnits="userSpaceOnUse">
      <stop offset="0" stop-color="#F5F7FF"/>
      <stop offset="1" stop-color="#D1D8F0"/>
    </linearGradient>
    <linearGradient id="rocketFin" x1="4" y1="14" x2="8" y2="22" gradientUnits="userSpaceOnUse">
      <stop offset="0" stop-color="#FF4D4D"/>
      <stop offset="1" stop-color="#E0214A"/>
    </linearGradient>
    <linearGradient id="rocketFinRight" x1="16" y1="14" x2="20" y2="22" gradientUnits="userSpaceOnUse">
      <stop offset="0" stop-color="#FF6B6B"/>
      <stop offset="1" stop-color="#E53958"/>
    </linearGradient>
    <radialGradient id="rocketWindow" cx="0" cy="0" r="1" gradientUnits="userSpaceOnUse" gradientTransform="translate(12 10.5) scale(3)">
      <stop offset="0" stop-color="#8CD3FF"/>
      <stop offset="1" stop-color="#2672FF"/>
    </radialGradient>
    <linearGradient id="rocketFlame" x1="12" y1="16" x2="12" y2="24" gradientUnits="userSpaceOnUse">
      <stop offset="0" stop-color="#FFD166"/>
      <stop offset="0.5" stop-color="#FF8A3D"/>
      <stop offset="1" stop-color="#FF4E45"/>
    </linearGradient>
  </defs>
  <path d="M6.2 15.5C4.4 17.3 4 20 4 20C4 20 6.8 19.7 8.6 18L10 16.7L8.8 14.8L6.2 15.5Z" fill="url(#rocketFin)"/>
  <path d="M17.8 15.5C19.6 17.3 20 20 20 20C20 20 17.2 19.7 15.4 18L14 16.7L15.2 14.8L17.8 15.5Z" fill="url(#rocketFinRight)"/>
  <path d="M11.3 17.3L9.6 20.6C9.1 21.6 9.9 22.7 11 22.6C11.4 22.5 11.7 22.2 11.9 21.9L12.6 21L13.3 21.9C13.5 22.2 13.8 22.5 14.2 22.6C15.3 22.7 16.1 21.6 15.6 20.6L13.9 17.3H11.3Z" fill="url(#rocketFlame)"/>
  <path d="M12 2C9.5 4.4 7 8.8 7 13.5C7 15.3 7.3 16.5 8 17.8L9.2 15.4C9.5 14.8 10.1 14.4 10.8 14.4H13.2C13.9 14.4 14.5 14.8 14.8 15.4L16 17.8C16.7 16.5 17 15.3 17 13.5C17 8.8 14.5 4.4 12 2Z" fill="url(#rocketBody)" stroke="#B8C2E6" stroke-width="0.8" stroke-linejoin="round"/>
  <path d="M12 4.1C11.3 5 9.6 7.7 9.6 11H14.4C14.4 7.7 12.7 5 12 4.1Z" fill="#E4ECFF"/>
  <circle cx="12" cy="10.5" r="2.2" fill="url(#rocketWindow)" stroke="#4F6FE2" stroke-width="0.8"/>
  <path d="M6.5 12.5C6.1 12.2 5.6 12.1 5.1 12.3C4.2 12.7 3 13.8 3 15.6C3 16.2 3.5 16.7 4.1 16.7C4.7 16.7 5.2 16.3 5.3 15.7C5.5 14.7 5.9 13.4 6.9 12.8L6.5 12.5Z" fill="#FF8A3D" opacity="0.6"/>
  <path d="M17.5 12.5C17.9 12.2 18.4 12.1 18.9 12.3C19.8 12.7 21 13.8 21 15.6C21 16.2 20.5 16.7 19.9 16.7C19.3 16.7 18.8 16.3 18.7 15.7C18.5 14.7 18.1 13.4 17.1 12.8L17.5 12.5Z" fill="#FF8A3D" opacity="0.6"/>
  <path d="M10.9 13C10.5 13 10.2 13.3 10.2 13.7C10.2 14.1 10.5 14.4 10.9 14.4H13.1C13.5 14.4 13.8 14.1 13.8 13.7C13.8 13.3 13.5 13 13.1 13H10.9Z" fill="#A2B2E5"/>
</svg>
